<svg xmlns="http://www.w3.org/2000/svg" viewBox="0 0 192 192"><defs><style>.cls-1{fill:#324056;}.cls-2{fill:none;}</style></defs><g id="trim_area" data-name="trim area"><g id="Filter"><path class="cls-1" d="M119.15,23.77a12.81,12.81,0,0,0-12.09,1.3L44.8,67.71l-19,3.82A17.26,17.26,0,0,0,12.22,91.82l4,20.24A17.27,17.27,0,0,0,33.79,125.9L46.27,157a16,16,0,0,0,17.94,9.71,17,17,0,0,0,2-.51,16,16,0,0,0,10.35-19.31l-.43-1.6-.86-3.16L73,133.7l-.86-3.17-1.56-5.8,7.22,1.45,3.53.72,11.87,2.39,36.31,7.32a13.25,13.25,0,0,0,5.06,0,12.84,12.84,0,0,0,10.06-15.1L126.9,33.14A12.76,12.76,0,0,0,119.15,23.77ZM29.5,112.41A5.14,5.14,0,0,1,28,109.7L24,89.46a5.25,5.25,0,0,1,4.11-6.17l14.44-2.88,6.11,30.51-14.44,2.89A5.28,5.28,0,0,1,29.5,112.41Zm33.31,29.76.18.62,1.94,7.2a2.27,2.27,0,0,1,.06.25,4,4,0,0,1-7.58,2.27L45.84,123.72l11.39-2.28.17.64Zm70-18.31a.77.77,0,0,1-.23.75.76.76,0,0,1-.74.23l-39.77-8-1-.21-24-4.83-6.24-1.26L53.9,76l60-41.06a.81.81,0,0,1,.79-.09.79.79,0,0,1,.5.62Z"/><line class="cls-1" x1="154.11" y1="73.65" x2="170.39" y2="70.39"/><path class="cls-1" d="M171.37,75.29,155.1,78.55a5,5,0,0,1-2-9.81l16.28-3.25a5,5,0,1,1,2,9.8Z"/><line class="cls-1" x1="144.84" y1="42.72" x2="159.24" y2="30.06"/><path class="cls-1" d="M145.83,47.62A5,5,0,0,1,141.54,39l14.4-12.66a5,5,0,0,1,6.6,7.51l-14.4,12.66A4.88,4.88,0,0,1,145.83,47.62Z"/><line class="cls-1" x1="157.46" y1="105.76" x2="175.62" y2="111.9"/><path class="cls-1" d="M176.59,116.81a5.07,5.07,0,0,1-2.58-.17l-18.16-6.14a5,5,0,0,1,3.21-9.48l18.16,6.15a5,5,0,0,1-.63,9.64Z"/><rect class="cls-2" y="-0.22" width="192" height="192"/></g></g></svg>