<svg xmlns="http://www.w3.org/2000/svg" viewBox="0 0 192 192"><defs><style>.cls-1,.cls-2{fill:#334056;}.cls-2{opacity:0;}</style></defs><g id="trim_area" data-name="trim area"><path class="cls-1" d="M161.83,20.11h-5.69V16a8,8,0,0,0-16.09,0v4.12H52.16V16a8,8,0,0,0-16.09,0v4.12h-5.9a22,22,0,0,0-22,22v120a22,22,0,0,0,22,22H161.83a22,22,0,0,0,22-22v-120A22,22,0,0,0,161.83,20.11Zm-131.66,12h5.9V36a8,8,0,0,0,16.09,0V32.11h87.89V36a8,8,0,0,0,16.09,0V32.11h5.69a10,10,0,0,1,10,10v10H20.17v-10A10,10,0,0,1,30.17,32.11Zm131.66,140H30.17a10,10,0,0,1-10-10v-98H171.83v98A10,10,0,0,1,161.83,172.1Z"/><path class="cls-1" d="M87.92,135.45l-19-18.26a7.43,7.43,0,0,1,10.29-10.73l8.75,8.39L112.83,90a7.43,7.43,0,1,1,10.29,10.72Z"/><rect class="cls-2" width="192" height="192"/></g></svg>