<svg xmlns="http://www.w3.org/2000/svg" viewBox="0 0 192 192"><defs><style>.cls-1,.cls-2{fill:#334056;}.cls-2{opacity:0;}</style></defs><g id="trim_area" data-name="trim area"><path class="cls-1" d="M173,16.11H123.84a50.42,50.42,0,0,0-28,8.51,48.49,48.49,0,0,0-27.42-8.51H19a11,11,0,0,0-11,11V137a11,11,0,0,0,11,11h9.13v14.43c0,5.38,4.83,9.6,11,9.6H152.89c6.17,0,11-4.22,11-9.6V148H173a11,11,0,0,0,11-11V27.11A11,11,0,0,0,173,16.11ZM20,28.11H68.45A36.49,36.49,0,0,1,92,36.7l0,0V142.07A48.62,48.62,0,0,0,68.43,136H20ZM151.89,160H40.16V148H68.43A36.6,36.6,0,0,1,92,156.54l3.82,3.22,4.21-3.47A36.65,36.65,0,0,1,123.24,148h28.65ZM172,136H123.24A48.56,48.56,0,0,0,100,141.89V36.7h-.31a38.37,38.37,0,0,1,24.15-8.59H172Z"/><path class="cls-1" d="M72.18,64.09h-36a4,4,0,0,1,0-8h36a4,4,0,0,1,0,8Z"/><path class="cls-1" d="M72.18,84.09h-36a4,4,0,0,1,0-8h36a4,4,0,0,1,0,8Z"/><path class="cls-1" d="M72.18,104.09h-36a4,4,0,0,1,0-8h36a4,4,0,0,1,0,8Z"/><path class="cls-1" d="M156.21,64h-36a4,4,0,0,1,0-8h36a4,4,0,0,1,0,8Z"/><path class="cls-1" d="M156.21,84h-36a4,4,0,0,1,0-8h36a4,4,0,0,1,0,8Z"/><path class="cls-1" d="M156.21,104h-36a4,4,0,0,1,0-8h36a4,4,0,0,1,0,8Z"/><rect class="cls-2" width="192" height="192"/></g></svg>