<svg xmlns="http://www.w3.org/2000/svg" viewBox="0 0 192 192"><defs><style>.cls-1,.cls-2{fill:#334056;}.cls-2{opacity:0;}</style></defs><g id="trim_area" data-name="trim area"><path class="cls-1" d="M184.05,63.67c-5.64,4.51-10.29,8.47-15.22,12a6.2,6.2,0,0,1-5.1.82Q111.22,53.41,58.85,30c-.15-.07-.24-.28-.83-1,2-4.5,4-9.38,6.23-14.16,1.79-3.84,4.62-2.33,7.3-1.14q26.76,11.82,53.53,23.66,26.51,11.73,53,23.5C179.78,61.57,181.46,62.42,184.05,63.67Z"/><path class="cls-1" d="M56.21,33.21l77.17,34.11c-3.6,8.15-7,15.92-10.6,24-2-.72-3.66-1.18-5.19-1.86-22-9.75-44-19.65-66.12-29.2-4.9-2.12-5.9-4.48-3.48-9.15C51,45.43,53.39,39.44,56.21,33.21Z"/><path class="cls-1" d="M136.87,68.89l16.69,7.44c-3.59,10.75-14.14,14.85-24,9.28Z"/><path class="cls-1" d="M8,95.63v80.12a2.58,2.58,0,0,0,3.6,2.37l6.59-2.83a2.59,2.59,0,0,0,1.57-2.37v-74a2.59,2.59,0,0,0-1.45-2.32l-6.59-3.24A2.58,2.58,0,0,0,8,95.63Z"/><path class="cls-1" d="M54.82,145.49l-24.27-.12a2.79,2.79,0,0,1-2.78-2.81l.05-10.35a2.79,2.79,0,0,1,2.81-2.78l14.49.07a2.8,2.8,0,0,0,2.5-1.52L74.18,76.46a2.79,2.79,0,0,1,3.76-1.2L87.14,80a2.78,2.78,0,0,1,1.21,3.76L57.31,144A2.79,2.79,0,0,1,54.82,145.49Z"/><rect class="cls-2" width="192" height="192"/></g></svg>