<svg xmlns="http://www.w3.org/2000/svg" viewBox="0 0 192 192"><defs><style>.cls-1{fill:#334056;}.cls-2{fill:none;}</style></defs><g id="trim_area" data-name="trim area"><path class="cls-1" d="M106.69,96.93l53.53,53.53a3.13,3.13,0,0,1,0,4.42l-2,2-2,2a3.13,3.13,0,0,1-4.42,0L98.21,105.41a3.13,3.13,0,0,0-4.42,0L40.26,158.94a3.13,3.13,0,0,1-4.42,0l-2-2-2-2a3.13,3.13,0,0,1,0-4.42L85.31,96.93a3.13,3.13,0,0,0,0-4.42L31.78,39a3.14,3.14,0,0,1,0-4.42l2-2,2-2a3.13,3.13,0,0,1,4.42,0L93.79,84a3.13,3.13,0,0,0,4.42,0L151.74,30.5a3.13,3.13,0,0,1,4.42,0l2,2,2,2a3.14,3.14,0,0,1,0,4.42L106.69,92.51A3.13,3.13,0,0,0,106.69,96.93Z"/><rect class="cls-2" width="192" height="192"/></g></svg>