<svg xmlns="http://www.w3.org/2000/svg" viewBox="0 0 192 192"><defs><style>.cls-1,.cls-2{fill:#334056;}.cls-2{opacity:0;}</style></defs><g id="trim_area" data-name="trim area"><path class="cls-1" d="M157,53.79a23.71,23.71,0,1,0-35.16.11A44.24,44.24,0,0,0,96.63,84.33l-.63,0c-.42,0-.84,0-1.26,0A44.24,44.24,0,0,0,69.15,53.23,23.7,23.7,0,1,0,34,53.35,44.1,44.1,0,0,0,7.65,93.66v6a8,8,0,0,0,8,8H72.3V108A23.65,23.65,0,0,0,78.47,124a44.1,44.1,0,0,0-26.34,40.31v6a8,8,0,0,0,8,8h72.09a8,8,0,0,0,8-8v-6a44.11,44.11,0,0,0-26.59-40.43,23.66,23.66,0,0,0,6.07-15.6h55.89a8,8,0,0,0,8-8v-6A44.11,44.11,0,0,0,157,53.79ZM139.37,26.26A11.71,11.71,0,1,1,127.66,38,11.72,11.72,0,0,1,139.37,26.26ZM84.31,107.69A11.71,11.71,0,0,1,95.5,96.34h.24l.26,0A11.72,11.72,0,0,1,107.7,108c0,.07,0,.15,0,.22A11.7,11.7,0,0,1,84.3,108C84.3,107.91,84.31,107.8,84.31,107.69Zm-32.79-82a11.71,11.71,0,1,1-11.7,11.71A11.72,11.72,0,0,1,51.52,25.7Zm24.24,70H19.65v-2a32,32,0,0,1,63.59-5.6A23.81,23.81,0,0,0,75.76,95.69Zm52.46,68.58v2H64.13v-2a32,32,0,0,1,64.09,0Zm43.37-68h-55a23.87,23.87,0,0,0-8.39-8.55,32,32,0,0,1,63.42,6.53Z"/><rect class="cls-2" width="192" height="192"/></g></svg>