<svg xmlns="http://www.w3.org/2000/svg" viewBox="0 0 192 192"><defs><style>.cls-1{fill:#334056;}.cls-2{fill:none;}</style></defs><g id="trim_area" data-name="trim area"><path class="cls-1" d="M96.83,35A9.89,9.89,0,0,0,95.62,34l58.71,58.55Z"/><path class="cls-1" d="M154.33,92.53,95.62,34,76.93,15.33a3.4,3.4,0,0,0-4.81,0L68.45,19a3.41,3.41,0,0,0,0,4.82L79.86,35.2,22.53,92.53a11.88,11.88,0,0,0,0,16.8L80,166.83a11.9,11.9,0,0,0,16.8,0l.17-.17,57.33-57.33a11.88,11.88,0,0,0,0-16.8ZM31.1,100.93,88.36,43.67l.07-.07,57.33,57.33Z"/><polygon class="cls-1" points="142.16 97.33 88.36 43.67 88.43 43.6 142.16 97.33"/><path class="cls-1" d="M172.31,155.8c-1.59,6-7,14.5-14.5,14.5s-12.92-8.47-14.5-14.5c-2.66-10.1,3.06-22,14.5-29.93C169.25,133.77,175,145.7,172.31,155.8Z"/><rect class="cls-2" width="192" height="192"/></g></svg>