<svg xmlns="http://www.w3.org/2000/svg" viewBox="0 0 192 192"><defs><style>.cls-1{fill:#007934;}.cls-2{fill:#fff;}.cls-3{fill:#334056;opacity:0;}</style></defs><g id="trim_area" data-name="trim area"><path class="cls-1" d="M147.47,8.15H44.53C31,8.15,20.07,17.48,20.07,29V163c0,11.52,11,20.85,24.46,20.85H147.47c13.51,0,24.46-9.33,24.46-20.85V29c0-11.52-11-20.85-24.46-20.85Z"/><path class="cls-2" d="M68.55,82.07H57.43l-3.62-6-3.58,6H39.4l9-12.83-8.09-13H51.7l2.74,5.29,3.09-5.29H67.92l-8,12.3Z"/><rect class="cls-2" x="88.01" y="55.99" width="60.04" height="12"/><rect class="cls-2" x="88.14" y="75.99" width="60.04" height="12"/><rect class="cls-2" x="87.94" y="95.99" width="60.04" height="12"/><rect class="cls-3" width="192" height="192"/></g></svg>