<svg xmlns="http://www.w3.org/2000/svg" viewBox="0 0 192 192"><defs><style>.cls-1{fill:#334056;}.cls-2{fill:none;}</style></defs><g id="trim_area" data-name="trim area"><path class="cls-1" d="M151.09,163.83h0v0Z"/><path class="cls-1" d="M135.14,183.26H52.75a15.72,15.72,0,0,1-15.7-15.71V23.61A15.72,15.72,0,0,1,52.75,7.9h82.39a15.72,15.72,0,0,1,15.7,15.71V167.55A15.72,15.72,0,0,1,135.14,183.26ZM52.75,19.9a3.71,3.71,0,0,0-3.7,3.71V167.55a3.71,3.71,0,0,0,3.7,3.71h82.39a3.71,3.71,0,0,0,3.7-3.71V23.61a3.71,3.71,0,0,0-3.7-3.71Z"/><circle class="cls-1" cx="95.5" cy="154.25" r="8.03"/><rect class="cls-2" x="-0.25" y="-0.21" width="192" height="192"/><circle class="cls-1" cx="78.12" cy="34.9" r="5.18"/><path class="cls-1" d="M112.66,39.9H98.92a5,5,0,0,1,0-10h13.74a5,5,0,0,1,0,10Z"/></g></svg>