<svg xmlns="http://www.w3.org/2000/svg" viewBox="0 0 192 192"><defs><style>.cls-1,.cls-3{fill:none;stroke:#334056;stroke-miterlimit:10;stroke-width:2px;}.cls-1{stroke-linecap:round;}.cls-2,.cls-4{fill:#334056;}.cls-4{opacity:0;}</style></defs><g id="trim_area" data-name="trim area"><line class="cls-1" x1="30.88" y1="18.96" x2="164.02" y2="174.45"/><line class="cls-1" x1="162.48" y1="17.58" x2="29.33" y2="173.07"/><path class="cls-2" d="M147.47,20.15c6.75,0,12.46,4.05,12.46,8.85V163c0,4.8-5.71,8.85-12.46,8.85H44.53c-6.75,0-12.46-4-12.46-8.85V29c0-4.8,5.71-8.85,12.46-8.85H147.47m0-12H44.53C31,8.15,20.07,17.48,20.07,29V163c0,11.52,11,20.85,24.46,20.85H147.47c13.51,0,24.46-9.33,24.46-20.85V29c0-11.52-11-20.85-24.46-20.85Z"/><ellipse class="cls-3" cx="95.93" cy="96.28" rx="40.6" ry="39.12"/><rect class="cls-4" width="192" height="192"/></g></svg>