<svg xmlns="http://www.w3.org/2000/svg" viewBox="0 0 192 192"><defs><style>.cls-1,.cls-2{fill:#334056;}.cls-2{opacity:0;}</style></defs><g id="trim_area" data-name="trim area"><rect class="cls-1" x="36.15" y="28.21" width="20.08" height="12.19"/><rect class="cls-1" x="36.15" y="48.28" width="20.08" height="3.9"/><rect class="cls-1" x="36.15" y="56.33" width="20.08" height="3.9"/><rect class="cls-1" x="35.94" y="99.94" width="20.08" height="12.19"/><rect class="cls-1" x="35.94" y="120.01" width="20.08" height="3.9"/><rect class="cls-1" x="35.94" y="128.06" width="20.08" height="3.9"/><rect class="cls-1" x="128.1" y="88.13" width="20.08" height="12.19"/><rect class="cls-1" x="128.1" y="108.2" width="20.08" height="3.9"/><rect class="cls-1" x="128.1" y="116.25" width="20.08" height="3.9"/><path class="cls-1" d="M179.94,171.86V160.13h0V75.07a7,7,0,0,0-7-7H120v-53a7,7,0,0,0-7-7H19a7,7,0,0,0-7,7V160.12h0v11.74h0V184H36.09V171.87H84V184H108.1V171.87h47.82V184H180V171.86Zm-4-4H16V164H175.94Zm-55.85-87.8H168v68.06H120.09ZM24,20.05h84V79.93H24Zm0,72h84v56H24Z"/><rect class="cls-2" width="192" height="192"/></g></svg>