<svg xmlns="http://www.w3.org/2000/svg" viewBox="0 0 192 192"><defs><style>.cls-1{fill:#324056;}.cls-2{fill:none;}</style></defs><g id="trim_area" data-name="trim area"><g id="Filter"><path class="cls-1" d="M179,29.36H13a6,6,0,0,0,0,12H27v120a6,6,0,0,0,12,0v-120H90V108a10.61,10.61,0,0,0,10.6,10.6H153v42.77a6,6,0,0,0,12,0v-120h14a6,6,0,0,0,0-12Zm-26,77.23H102V80h51ZM153,68H102V41.36h51Z"/><path class="cls-1" d="M132.42,59.17H120.58a4.5,4.5,0,0,1,0-9h11.84a4.5,4.5,0,0,1,0,9Z"/><path class="cls-1" d="M132.42,97.78H120.58a4.5,4.5,0,0,1,0-9h11.84a4.5,4.5,0,0,1,0,9Z"/><rect class="cls-2" width="192" height="192"/></g></g></svg>