<svg xmlns="http://www.w3.org/2000/svg" viewBox="0 0 192 192"><defs><style>.cls-1{fill:#f9a825;}.cls-2{fill:#fff;}.cls-3{fill:#334056;opacity:0;}</style></defs><g id="trim_area" data-name="trim area"><path class="cls-1" d="M172,68.22V55.87a9.2,9.2,0,0,0-2.75-6.36l-.35-.34h0c-.17-.19-.33-.38-.5-.55l-30.53-30.5-5.77-5.83A12,12,0,0,0,131,11.23,12,12,0,0,0,125,8.43a14.29,14.29,0,0,0-2.85-.3h-5l-.37-.1-72.24.12C31,8.15,20.07,17.48,20.07,29V163c0,11.52,11,20.85,24.46,20.85H147.47c13.51,0,24.46-9.33,24.46-20.85V94.56a5.44,5.44,0,0,0,0-.57V82.57l0-14.35Z"/><path class="cls-2" d="M124.19,22.54l1.61.45,2.8,2.8,11.51,11.65,0,.05,0,0,14.09,14L159,56.18l0,0H136A11.83,11.83,0,0,1,124.19,44.4Z"/><path class="cls-2" d="M159.93,163c0,4.8-5.71,8.85-12.46,8.85H44.53c-6.75,0-12.46-4-12.46-8.85V29c0-4.8,5.71-8.85,12.48-8.85L112.19,20V44.4A23.81,23.81,0,0,0,136,68.22h24V82.57l0,9.1Z"/><rect class="cls-3" width="192" height="192"/></g></svg>