<svg xmlns="http://www.w3.org/2000/svg" viewBox="0 0 192 192"><defs><style>.cls-1{fill:#334056;}.cls-2{fill:none;}</style></defs><g id="trim_area" data-name="trim area"><g id="Filter"><path class="cls-1" d="M109.56,182.55a9.27,9.27,0,0,1-2.75-.42l-31.63-10a9.09,9.09,0,0,1-6.38-8.71V104.65l-61.61-77a6.48,6.48,0,0,1-.76-6.8,6.32,6.32,0,0,1,5.73-3.6H178.27a6.4,6.4,0,0,1,4.9,10.48l-64.46,77v68.68a9.15,9.15,0,0,1-9.15,9.14ZM80.8,161.3l25.91,8.21V103.86A9.62,9.62,0,0,1,109,97.69l57.28-68.41H23.85L78.69,97.8a9.68,9.68,0,0,1,2.11,6Z"/><rect class="cls-2" x="0.02" y="-0.03" width="192" height="192"/></g></g></svg>