<svg xmlns="http://www.w3.org/2000/svg" viewBox="0 0 192 192"><defs><style>.cls-1,.cls-2{fill:#334056;}.cls-2{opacity:0;}</style></defs><g id="trim_area" data-name="trim area"><path class="cls-1" d="M96,100.76a6,6,0,0,1-2.62-.6L11.61,59.71a6,6,0,0,1,0-10.78L93.35,8.66a6,6,0,0,1,5.3,0l81.77,40.27a6,6,0,0,1,.05,10.74L98.73,100.12A6.13,6.13,0,0,1,96,100.76ZM27.88,54.28,96,88.06l68.34-33.68L96,20.73Z"/><path class="cls-1" d="M96,140.11a6,6,0,0,1-2.62-.6L11.61,99.06a6,6,0,0,1,5.25-10.79L96,127.42l79.08-39.11A6,6,0,1,1,180.47,99L98.73,139.47A6,6,0,0,1,96,140.11Z"/><path class="cls-1" d="M96,184a6,6,0,0,1-2.62-.6L11.61,142.9a6,6,0,1,1,5.25-10.79L96,171.26l79.08-39.11a6,6,0,1,1,5.41,10.71L98.73,183.31A6,6,0,0,1,96,184Z"/><rect class="cls-2" width="192" height="192"/></g></svg>