<svg xmlns="http://www.w3.org/2000/svg" viewBox="0 0 192 192"><defs><style>.cls-1{fill:#334056;}.cls-2{fill:none;}</style></defs><g id="trim_area" data-name="trim area"><g id="Filter"><path class="cls-1" d="M181.05,94.07A89,89,0,0,0,96,30.07h-.29A87.7,87.7,0,0,0,59.9,37.88L70.18,48.16a74.55,74.55,0,0,1,25.57-4.64H96a75.48,75.48,0,0,1,71.55,52.37,75.43,75.43,0,0,1-19.32,30.32l9.51,9.51A88.62,88.62,0,0,0,181,97.92l.59-1.92Z"/><path class="cls-1" d="M96,63.29a31.89,31.89,0,0,0-9.32,1.38L99,77a18.75,18.75,0,0,1,15.5,15.49l12.31,12.31A32.2,32.2,0,0,0,96,63.29Z"/><path class="cls-1" d="M31.46,21.62,22,31.12,40.59,49.76A88.27,88.27,0,0,0,11,94.07L10.39,96,11,97.92a89.11,89.11,0,0,0,84.73,62.93H96a88.37,88.37,0,0,0,43.92-11.77l21.3,21.3,9.51-9.5ZM78.84,88l24.62,24.62A18.55,18.55,0,0,1,96,114.18,18.74,18.74,0,0,1,77.28,95.46,18.34,18.34,0,0,1,78.84,88ZM96,147.4h-.24a76.14,76.14,0,0,1-71.3-51.51,75,75,0,0,1,25.7-36.57L68.94,78.11a31.8,31.8,0,0,0-5.11,17.35A32.2,32.2,0,0,0,96,127.64a31.85,31.85,0,0,0,17.35-5.12L130,139.17A74.84,74.84,0,0,1,96,147.4Z"/><rect class="cls-2" x="0.01" y="0.01" width="192" height="192"/></g></g></svg>