<svg xmlns="http://www.w3.org/2000/svg" viewBox="0 0 192 192"><defs><style>.cls-1{fill:#7f8a90;}.cls-2{fill:#334056;opacity:0;}</style></defs><g id="trim_area" data-name="trim area"><path class="cls-1" d="M146.51,7.59,43.57,8.72c-13.51.14-24.35,9.6-24.23,21.11l1.47,134c.12,11.51,11.18,20.73,24.68,20.58l58.81-.64,44.13-.49c13.51-.14,24.35-9.6,24.23-21.11l-.78-71.34-.69-62.66C171.07,16.66,160,7.44,146.51,7.59ZM43.7,20.71l102.94-1.12c6.75-.08,12.5,3.91,12.55,8.71L159.88,91l.44,40.56-19.78-19.35-23.92,24.45-40.87-40L32.56,140.8,31.34,29.7C31.29,24.9,37,20.79,43.7,20.71Z"/><circle class="cls-1" cx="113.85" cy="85.75" r="9.93"/><rect class="cls-2" width="192" height="192"/></g></svg>