<svg xmlns="http://www.w3.org/2000/svg" viewBox="0 0 192 192"><defs><style>.cls-1,.cls-3{fill:#334056;}.cls-2{fill:none;}.cls-3{opacity:0;}</style></defs><g id="trim_area" data-name="trim area"><path class="cls-1" d="M99.94,60H43.87a4,4,0,1,1,0-8H99.94a4,4,0,0,1,0,8Z"/><path class="cls-1" d="M100.49,108H44.39a4,4,0,0,1,0-8h56.1a4,4,0,0,1,0,8Z"/><path class="cls-1" d="M72.53,132H44.43a4,4,0,0,1,0-8h28.1a4,4,0,1,1,0,8Z"/><path class="cls-2" d="M148,120a8.16,8.16,0,0,0-8.14,7.92h16.29A8.16,8.16,0,0,0,148,120Z"/><path class="cls-1" d="M178.28,184a6,6,0,0,1-4.24-1.75l-21-21.05a6,6,0,0,1,8.48-8.49l21.05,21A6,6,0,0,1,178.28,184Z"/><path class="cls-1" d="M136.64,113.5a23.14,23.14,0,1,1-23.14,23.14,23.17,23.17,0,0,1,23.14-23.14m0-12a35.14,35.14,0,1,0,35.15,35.14,35.14,35.14,0,0,0-35.15-35.14Z"/><path class="cls-1" d="M120,84H43.87a4,4,0,1,1,0-8H120a4,4,0,0,1,0,8Z"/><path class="cls-1" d="M87.92,177.75a6,6,0,0,0-6-6H27.35c-4,0-7.17-3.58-7.17-8V27.92c0-4.41,3.22-8,7.17-8h107c4,0,7.17,3.59,7.17,8V77.84a6,6,0,0,0,6,6h0a6,6,0,0,0,6-6V27.92c0-11-8.58-20-19.17-20h-107c-10.59,0-19.17,9-19.17,20V163.75c0,11.05,8.58,20,19.17,20H81.92a6,6,0,0,0,6-6Z"/><rect class="cls-3" width="192" height="192"/></g></svg>