<svg xmlns="http://www.w3.org/2000/svg" viewBox="0 0 192 192"><defs><style>.cls-1,.cls-2,.cls-3{fill:#334056;}.cls-1{stroke:#334056;stroke-miterlimit:10;stroke-width:4px;}.cls-3{opacity:0;}</style></defs><g id="trim_area" data-name="trim area"><path class="cls-1" d="M164,74.68V22.16a14,14,0,0,0-14-14L42.13,8h0a14,14,0,0,0-14,14v52.6l-20,15v.13l0,2.65,0,77.51a14,14,0,0,0,14,14h147.8a14,14,0,0,0,14-14V100.15l0,0V89.62Zm0,10,11.83,8.88L164,99.21ZM36.1,22a6,6,0,0,1,6-6h0L150,16.16a6,6,0,0,1,6,6V103l-59.47,28.4a1,1,0,0,1-.86,0L36.1,103.08V22Zm-8,62.61V99.27l-12-5.69Zm147.76,85.31a6,6,0,0,1-6,6H22.06a6,6,0,0,1-6-6v-66l12,5.74h0l64,30.86a9,9,0,0,0,8.2,0l51.32-25L175.86,104Z"/><polygon class="cls-2" points="64.44 31.89 68.31 39.75 76.98 41.01 70.71 47.12 72.19 55.75 64.44 51.68 56.68 55.75 58.16 47.12 51.89 41.01 60.56 39.75 64.44 31.89"/><path class="cls-2" d="M140.06,48H92a4,4,0,0,1,0-8h48.07a4,4,0,1,1,0,8Z"/><path class="cls-2" d="M140.06,64.06H92a4,4,0,0,1,0-8h48.07a4,4,0,0,1,0,8Z"/><path class="cls-2" d="M140.06,80.09H92a4,4,0,1,1,0-8h48.07a4,4,0,0,1,0,8Z"/><rect class="cls-3" width="192" height="192"/></g></svg>