<svg xmlns="http://www.w3.org/2000/svg" xmlns:xlink="http://www.w3.org/1999/xlink" viewBox="0 0 192 192"><defs><style>.cls-1,.cls-4{fill:none;}.cls-1{clip-rule:evenodd;}.cls-2{clip-path:url(#clip-path);}.cls-3{fill:#334056;}</style><clipPath id="clip-path"><path class="cls-1" d="M525.15-1632.69v-45c0-27.66-14.78-50.82-40.54-57v-6.12a13.5,13.5,0,0,0-13.52-13.52,13.5,13.5,0,0,0-13.52,13.52v6.12c-25.86,6.13-40.54,29.2-40.54,57v45l-18,18v9H543.17v-9Zm-54.06,54.06a18.07,18.07,0,0,0,18-18h-36A18,18,0,0,0,471.09-1578.63Z"/></clipPath></defs><g id="trim_area" data-name="trim area"><path class="cls-3" d="M160.75,13.75H30.47A16.74,16.74,0,0,0,13.75,30.47V160.74a16.75,16.75,0,0,0,16.72,16.73H160.75a16.75,16.75,0,0,0,16.72-16.73V30.47A16.74,16.74,0,0,0,160.75,13.75Zm-135,147V30.47a4.72,4.72,0,0,1,4.72-4.72H89.61V165.47H30.47A4.73,4.73,0,0,1,25.75,160.74Zm139.72,0a4.73,4.73,0,0,1-4.72,4.73H101.61V25.75h59.14a4.72,4.72,0,0,1,4.72,4.72Z"/><rect class="cls-4" x="-0.25" y="-0.45" width="192" height="192"/><path class="cls-3" d="M83.7,80.16a5,5,0,0,1-7.07,0L63,66.49v69a5,5,0,0,1-10,0v-69L39.29,80.16a5,5,0,1,1-7.07-7.07L52.37,52.93a7.92,7.92,0,0,1,11.18,0L83.7,73.09A5,5,0,0,1,83.7,80.16Z"/><path class="cls-3" d="M159.7,110.93a5,5,0,0,0-7.07,0L139,124.6v-69a5,5,0,0,0-10,0v69l-13.67-13.67a5,5,0,1,0-7.07,7.07l20.15,20.16a7.92,7.92,0,0,0,11.18,0L159.7,118A5,5,0,0,0,159.7,110.93Z"/></g></svg>