<svg xmlns="http://www.w3.org/2000/svg" viewBox="0 0 192 192"><defs><style>.cls-1,.cls-2{fill:#334056;}.cls-2{opacity:0;}</style></defs><g id="trim_area" data-name="trim area"><path class="cls-1" d="M165.1,137.75l-5.35-5.37a24.9,24.9,0,0,1-7.29-17.66V83.41c0-.13,0-.25,0-.38-.31-25.26-15.67-47.51-38-55.72,0-.44,0-.78,0-1a18.43,18.43,0,1,0-36.86,0c0,.18,0,.46,0,.8C55,35.2,39.48,57.51,39.17,83c0,.13,0,.25,0,.38v31.73a24.83,24.83,0,0,1-7.33,17.69l-4.91,4.91a14,14,0,0,0,9.93,24H50.32v.07H65.55a32.06,32.06,0,0,0,61.08,0h10.48v-.07h18a14.05,14.05,0,0,0,9.95-24Zm-69,34.34a20.15,20.15,0,0,1-17.52-10.31h35A20.15,20.15,0,0,1,96.09,172.09Zm59.06-22.38H121.89a4.65,4.65,0,0,0-.75.07H71a4.76,4.76,0,0,0-.75-.07H36.85a2,2,0,0,1-2-2,2,2,0,0,1,.6-1.45l4.91-4.9a36.8,36.8,0,0,0,10.84-26.18V83.74a2.71,2.71,0,0,0,0-.29c.15-21.88,14.08-40.83,33.89-46.07a6,6,0,0,0,4.46-5.74c0-1.29,0-2.52.06-3.48s0-1.47,0-1.82a6.43,6.43,0,1,1,12.86,0c0,.42,0,1.42.08,2.73,0,.83.06,1.81.09,2.83A6,6,0,0,0,107,37.5c19.54,5.42,33.28,24.31,33.42,46a2.71,2.71,0,0,0,0,.29v31a36.79,36.79,0,0,0,10.78,26.12l5.35,5.38a2,2,0,0,1-1.44,3.49Z"/><rect class="cls-2" width="192" height="192"/></g></svg>