<svg xmlns="http://www.w3.org/2000/svg" viewBox="0 0 192 192"><defs><style>.cls-1{fill:#9e0000;}.cls-2{fill:#334056;opacity:0;}</style></defs><g id="trim_area" data-name="trim area"><path class="cls-1" d="M147.47,8.15H44.53C31,8.15,20.07,17.48,20.07,29V163c0,11.52,11,20.85,24.46,20.85H147.47c13.51,0,24.46-9.33,24.46-20.85V29C171.93,17.48,161,8.15,147.47,8.15ZM75.92,123.36a9.7,9.7,0,0,1-2.35,3.94,11.16,11.16,0,0,1-4.47,2.63,21.68,21.68,0,0,1-7,1h-3v10.62H48.31V106.09H62.05a22.14,22.14,0,0,1,7,1,11.63,11.63,0,0,1,4.49,2.63A9.35,9.35,0,0,1,76,113.6a16.51,16.51,0,0,1,.69,4.84A16.3,16.3,0,0,1,75.92,123.36Zm33.43,13.54q-4.71,4.62-13.7,4.62H81.11V106.09H95.65q9.28,0,13.87,4.51t4.59,13Q114.07,132.29,109.35,136.9ZM143.69,115H129.6v5.8h13.3v8.89H129.6v11.86h-11V106.09h25.11Z"/><path class="cls-1" d="M96.05,115.51H92.13v16.58h3.92a5.93,5.93,0,0,0,5-2.13,10.32,10.32,0,0,0,1.61-6.26,9.88,9.88,0,0,0-1.49-6Q99.67,115.57,96.05,115.51Z"/><path class="cls-1" d="M62.15,114.82h-3v7.34h3c1.69,0,2.84-.3,3.45-.91a3.77,3.77,0,0,0,.92-2.76,3.67,3.67,0,0,0-.94-2.75A4.93,4.93,0,0,0,62.15,114.82Z"/><rect class="cls-2" width="192" height="192"/></g></svg>