<svg xmlns="http://www.w3.org/2000/svg" viewBox="0 0 192 192"><defs><style>.cls-1{fill:#334056;}.cls-2{fill:none;}</style></defs><g id="trim_area" data-name="trim area"><path class="cls-1" d="M128.42,121.39l33-38.31a19.72,19.72,0,0,0,19-5.14,9.79,9.79,0,0,0,0-13.83l-43.8-43.8a9.73,9.73,0,0,0-6.79-2.85h-.15a9.85,9.85,0,0,0-6.89,2.86,19.7,19.7,0,0,0-5,19.38L79.62,72.62a22.78,22.78,0,0,0-28.94,2.71,12.58,12.58,0,0,0,0,17.76L75.1,117.51,35.24,157.38a6,6,0,0,0,8.48,8.48L83.59,126,108,150.41a12.57,12.57,0,0,0,17.77,0A22.8,22.8,0,0,0,128.42,121.39Zm-11.53,20.7a.51.51,0,0,1-.4-.16L59.16,84.6a.57.57,0,0,1,0-.79,10.78,10.78,0,0,1,15.24,0l4.92,4.91L132.75,42.6l-2.63-4.34a7.7,7.7,0,0,1-.19-7.67L170.14,70.8a7.74,7.74,0,0,1-7.5-.08l-4.29-2.44-46,53.43,5,5a10.78,10.78,0,0,1,0,15.24A.57.57,0,0,1,116.89,142.09Z"/><rect class="cls-2" width="192" height="192"/></g></svg>