<svg xmlns="http://www.w3.org/2000/svg" viewBox="0 0 192 192"><defs><style>.cls-1,.cls-2{fill:#334056;}.cls-2{opacity:0;}</style></defs><g id="trim_area" data-name="trim area"><path class="cls-1" d="M183.51,164.9C181,142.83,160.89,108,121.87,96.85a48.19,48.19,0,1,0-51.81,0c-38.62,11-58.18,45.71-61.13,67.83-1.37,10.24,7.91,19.22,19.87,19.22H163.61C175.44,183.85,184.65,175.05,183.51,164.9ZM59.81,56.19A36.19,36.19,0,1,1,96,92.39,36.23,36.23,0,0,1,59.81,56.19Zm110.68,113a9.26,9.26,0,0,1-6.88,2.71H28.8a9.21,9.21,0,0,1-6.94-2.77,3.59,3.59,0,0,1-1-2.86c1.35-10.07,7.44-25.55,20.5-38.8,9.94-10.08,27.46-22.11,54.47-22.11,27.34,0,45.18,12.13,55.32,22.31,13.42,13.47,19.42,29.22,20.47,38.62A3.68,3.68,0,0,1,170.49,169.14Z"/><rect class="cls-2" width="192" height="192"/></g></svg>