<svg xmlns="http://www.w3.org/2000/svg" viewBox="0 0 192 192"><defs><style>.cls-1{fill:#334056;}.cls-2{fill:none;}</style></defs><g id="trim_area" data-name="trim area"><g id="Filter"><path class="cls-1" d="M108,62.34a6,6,0,0,1-8.49,0L72.05,34.87V168a6,6,0,0,1-12,0V34.87L32.58,62.34a6,6,0,0,1-8.49-8.48L59,19a10,10,0,0,1,14.14,0L108,53.86A6,6,0,0,1,108,62.34Z"/><path class="cls-1" d="M165.69,127.66a6,6,0,0,0-8.49,0l-27.47,27.47V22.05a6,6,0,1,0-12,0V155.13L90.26,127.66a6,6,0,1,0-8.49,8.48L116.66,171a10,10,0,0,0,14.14,0l34.89-34.89A6,6,0,0,0,165.69,127.66Z"/><rect class="cls-2" y="-0.03" width="192" height="192"/></g></g></svg>