<svg xmlns="http://www.w3.org/2000/svg" viewBox="0 0 192 192"><defs><style>.cls-1,.cls-2,.cls-3{fill:#334056;}.cls-1{stroke:#334056;stroke-miterlimit:10;stroke-width:4px;}.cls-3{opacity:0;}</style></defs><g id="trim_area" data-name="trim area"><path class="cls-1" d="M184.27,96.4a4,4,0,0,0-1.17-2.83L166.3,76.78a4,4,0,0,0-2.83-1.17h0a4,4,0,0,0-2.83,1.18L147.76,89.72V23.52c0-8.49-6.28-15.4-14-15.4H34.24c-7.72,0-14,6.91-14,15.4v145c0,8.49,6.28,15.4,14,15.4h99.52c7.72,0,14-6.91,14-15.4v-34L183.1,99.23A4,4,0,0,0,184.27,96.4Zm-44.51,72.17c0,3.64-2.69,6.6-6,6.6H34.24c-3.31,0-6-3-6-6.6v-145c0-3.64,2.69-6.6,6-6.6h99.52c3.31,0,6,3,6,6.6V97.75l-33.57,33.72a4,4,0,0,0-1.8,3.36h0V135c0,1.86,0,16.85,0,16.85a4,4,0,0,0,4,4h16.4a4,4,0,0,0,2.83-1.17l12.12-12.13Zm-16.61-20.71H112.4V136.58l51.09-51.31L174.61,96.4Z"/><path class="cls-2" d="M124,40H44.07a4,4,0,1,1,0-8H124a4,4,0,0,1,0,8Z"/><path class="cls-2" d="M124.24,60H44.16a4,4,0,0,1,0-8h80.08a4,4,0,1,1,0,8Z"/><path class="cls-2" d="M92.07,156.06H44a4,4,0,0,1,0-8H92.07a4,4,0,0,1,0,8Z"/><rect class="cls-3" width="192" height="192"/></g></svg>