<svg xmlns="http://www.w3.org/2000/svg" xmlns:xlink="http://www.w3.org/1999/xlink" viewBox="0 0 192 192"><defs><style>.cls-1,.cls-4{fill:none;}.cls-1{clip-rule:evenodd;}.cls-2{clip-path:url(#clip-path);}.cls-3{fill:#334056;}</style><clipPath id="clip-path"><path class="cls-1" d="M1205.1-1633.72v-45c0-27.67-14.77-50.82-40.54-57v-6.13a13.5,13.5,0,0,0-13.52-13.51,13.49,13.49,0,0,0-13.51,13.51v6.13c-25.86,6.13-40.55,29.19-40.55,57v45l-18,18v9h144.16v-9ZM1151-1579.66a18.07,18.07,0,0,0,18-18h-36A18,18,0,0,0,1151-1579.66Z"/></clipPath></defs><g id="trim_area" data-name="trim area"><path class="cls-3" d="M181.67,112.56a16,16,0,0,0-11-7.06l-2.08-.3c-2.2-.33-3.31-.49-34.39,15a21.87,21.87,0,0,0-.74-4.17c-2-7.09-7.14-11.67-13.49-12h-.28l-35.19.13v0l-19.93-.09L19,119.61A14.08,14.08,0,0,0,8.32,133.19v37a14,14,0,0,0,14,14h85.3a16.14,16.14,0,0,0,9.8-3.34l59.33-45.94a16,16,0,0,0,4.92-22.34Zm-9.48,9.65a4.86,4.86,0,0,1-2,2.65L170,125l-59.91,46.38a4,4,0,0,1-2.45.83H22.32a2,2,0,0,1-2-2v-37a2,2,0,0,1,1.58-1.95l.32-.07,44.26-15,38,.08h13a6,6,0,0,1,1.12,11.41l-1.36.61-38.79.12a6,6,0,0,0-6,6h0a6,6,0,0,0,6,6l25.87-.11h12.11c7,0,10.11-1.71,14.17-3.59,23.43-10.84,34.11-18.07,37.46-19.42l.76.11a4,4,0,0,1,3.31,4.84Z"/><path class="cls-3" d="M144.44,17.29A31,31,0,0,0,90.28,43.56L50,77.37l1.77,17.69,17.11,4.82,7.91-6.64,3.26-7L89.74,83l4-8.21,8-2.41,7.49-6.28a31.07,31.07,0,0,0,8.8,2.08c.92.08,1.84.12,2.75.12a31,31,0,0,0,23.72-51ZM66.26,87.71,62,86.5l-.45-4.44,33-27.7,2.37,2.82L99.27,60l-2.94,2.47L85.94,65.63,81.86,74l-9.81,3.3M140.63,39a20,20,0,1,1-20-21.78c.59,0,1.18,0,1.78.08A20,20,0,0,1,140.63,39Z"/><path class="cls-3" d="M125.87,39.63A7.64,7.64,0,1,1,133.5,32,7.64,7.64,0,0,1,125.87,39.63Zm0-11.08A3.45,3.45,0,1,0,129.32,32,3.45,3.45,0,0,0,125.87,28.55Z"/><rect class="cls-4" width="192" height="192"/></g></svg>