<svg xmlns="http://www.w3.org/2000/svg" viewBox="0 0 192 192"><defs><style>.cls-1{fill:#324056;}.cls-2{fill:none;}</style></defs><g id="trim_area" data-name="trim area"><path class="cls-1" d="M172,51.26H20a6,6,0,1,1,0-12H172a6,6,0,0,1,0,12Z"/><path class="cls-1" d="M96,151.67H20a6,6,0,0,1,0-12H96a6,6,0,0,1,0,12Z"/><path class="cls-1" d="M173,120.48a31,31,0,0,1-31,31,6,6,0,0,1,0-12,19,19,0,0,0,0-38H20a6,6,0,0,1,0-12H142A31,31,0,0,1,173,120.48Z"/><rect class="cls-2" y="-0.05" width="192" height="192"/></g></svg>