<svg xmlns="http://www.w3.org/2000/svg" viewBox="0 0 192 192"><defs><style>.cls-1,.cls-2{fill:#334056;}.cls-1{stroke:#334056;stroke-miterlimit:10;stroke-width:4px;}.cls-2{opacity:0;}</style></defs><g id="trim_area" data-name="trim area"><path class="cls-1" d="M173.69,83.91h-9.9c-5.66-28.48-26-51.09-51.87-57.76v-13a5,5,0,0,0-5-5H85a5,5,0,0,0-5,5v13c-25.8,6.7-46.13,29.31-51.78,57.74H17.81a10,10,0,0,0-10,10V102a10,10,0,0,0,10,10h14.4c.61,6.85,2.36,15.79,5.25,26.67,6.84,25.78,30,44.39,56.35,45.27.83,0,1.66,0,2.47,0l1.92,0a60.49,60.49,0,0,0,57-46.42A173.24,173.24,0,0,0,159.71,112h14a10,10,0,0,0,10-10V93.91A10,10,0,0,0,173.69,83.91ZM88,16.17h15.93V63.92H88ZM51.93,52.86V64.15a4,4,0,0,0,8,0v-19A58.86,58.86,0,0,1,80,34.47V66.92a5,5,0,0,0,5,5h21.93a5,5,0,0,0,5-5V34.44A58.88,58.88,0,0,1,132,45.08V64a4,4,0,1,0,8,0V52.77a70.26,70.26,0,0,1,15.61,31.14H36.39A70.24,70.24,0,0,1,51.93,52.86Zm95.45,82.77A52.47,52.47,0,0,1,98,175.93c-1.32,0-2.6,0-3.93,0C71.23,175.16,51.13,159,45.19,136.6A163.36,163.36,0,0,1,40.24,112H151.69A170.39,170.39,0,0,1,147.38,135.63ZM175.69,102a2,2,0,0,1-2,2H17.81a2,2,0,0,1-2-2V93.91a2,2,0,0,1,2-2H173.69a2,2,0,0,1,2,2Z"/><rect class="cls-2" width="192" height="192"/></g></svg>