<svg xmlns="http://www.w3.org/2000/svg" viewBox="0 0 192 192"><defs><style>.cls-1,.cls-2,.cls-3{fill:#334056;}.cls-1{stroke:#334056;stroke-miterlimit:10;stroke-width:4px;}.cls-3{opacity:0;}</style></defs><g id="trim_area" data-name="trim area"><path class="cls-1" d="M169.92,47.87h-6V38a14,14,0,0,0-14-14H22.08a14,14,0,0,0-14,14v91.95a14,14,0,0,0,14,14H28v13.91a14,14,0,0,0,14,14h127.9a14,14,0,0,0,14-14v-96A14,14,0,0,0,169.92,47.87ZM22.08,135.94a6,6,0,0,1-6-6V38a6,6,0,0,1,6-6H150a6,6,0,0,1,6,6v91.95a6,6,0,0,1-6,6H22.08Zm153.84,21.91a6,6,0,0,1-6,6H42a6,6,0,0,1-6-6V143.94H150a14,14,0,0,0,14-14V55.87h6a6,6,0,0,1,6,6Z"/><path class="cls-2" d="M90.88,64.09H37.13a9,9,0,0,1-9-9v-6a9,9,0,0,1,9-9H90.88a9,9,0,0,1,9,9v6A9,9,0,0,1,90.88,64.09Zm-53.75-16a1,1,0,0,0-1,1v6a1,1,0,0,0,1,1H90.88a1,1,0,0,0,1-1v-6a1,1,0,0,0-1-1Z"/><path class="cls-2" d="M96.4,79.92H31.92a4,4,0,0,1,0-8H96.4a4,4,0,0,1,0,8Z"/><path class="cls-2" d="M132.09,108h-100a4,4,0,0,1,0-8h100a4,4,0,0,1,0,8Z"/><path class="cls-2" d="M56,122H31.88a4,4,0,1,1,0-8H56a4,4,0,0,1,0,8Z"/><rect class="cls-3" width="192" height="192"/></g></svg>