<svg xmlns="http://www.w3.org/2000/svg" viewBox="0 0 192 192"><defs><style>.cls-1,.cls-2{fill:#334056;}.cls-2{opacity:0;}</style></defs><g id="trim_area" data-name="trim area"><path class="cls-1" d="M142,117.52A28.46,28.46,0,1,1,113.53,146,28.49,28.49,0,0,1,142,117.52m0-9.48A37.94,37.94,0,1,0,179.93,146,37.94,37.94,0,0,0,142,108Z"/><path class="cls-1" d="M142,124.6A21.38,21.38,0,1,0,163.37,146,21.4,21.4,0,0,0,142,124.6Zm11.77,16.74L138.37,156.1l-8.16-7.82a3.18,3.18,0,1,1,4.41-4.59l3.75,3.59,11-10.54a3.19,3.19,0,0,1,4.41,4.6Z"/><path class="cls-1" d="M105.24,60H49.18a4,4,0,0,1,0-8h56.06a4,4,0,0,1,0,8Z"/><path class="cls-1" d="M125.36,84H49.26a4,4,0,0,1,0-8h76.1a4,4,0,1,1,0,8Z"/><path class="cls-1" d="M85.36,108.06H49.26a4,4,0,1,1,0-8h36.1a4,4,0,1,1,0,8Z"/><path class="cls-1" d="M91.82,177.92a6,6,0,0,0-6-6H31.24c-3.95,0-7.17-3.59-7.17-8V28.08c0-4.41,3.22-8,7.17-8h107c4,0,7.17,3.59,7.17,8V78a6,6,0,0,0,6,6h0a6,6,0,0,0,6-6V28.08c0-11-8.58-20-19.17-20h-107c-10.58,0-19.17,9-19.17,20V163.92c0,11,8.59,20,19.17,20H85.82a6,6,0,0,0,6-6Z"/><circle class="cls-1" cx="37.26" cy="55.98" r="4.04"/><circle class="cls-1" cx="37.21" cy="79.98" r="4.04"/><circle class="cls-1" cx="37.29" cy="103.99" r="4.04"/><rect class="cls-2" width="192" height="192"/></g></svg>